<svg width="62" height="50" viewBox="0 0 62 50" fill="none" xmlns="http://www.w3.org/2000/svg">
<path d="M4.18215 33.9468C4.28022 34.0018 4.34927 34.0378 4.41731 34.0778C5.07377 34.4661 5.67119 34.9354 6.26161 35.4148C6.75195 35.8131 7.24029 36.2163 7.74865 36.5906C8.84541 37.3962 10.0793 37.9135 11.3872 38.2648C12.564 38.58 13.7629 38.7731 14.9737 38.9002C17.7657 39.1934 20.5656 39.2274 23.3686 39.1494C24.8566 39.1084 26.3437 39.0423 27.8317 38.9863C27.9668 38.9813 28.1019 38.9663 28.246 38.9553V8.65205C28.0128 8.67106 27.7857 8.68907 27.5575 8.70808C26.88 8.76512 26.2026 8.84018 25.5241 8.8772C24.1571 8.95025 22.7902 9.0163 21.4222 9.06033C20.0533 9.10436 18.6843 9.06333 17.3173 8.98028C15.358 8.86119 13.4156 8.62202 11.5133 8.11967C10.1864 7.76943 8.90746 7.2971 7.72963 6.5806C6.52479 5.84808 5.53009 4.90742 4.84962 3.65755C4.37729 2.79094 4.1071 1.85929 3.95499 0.888611C3.91096 0.605412 3.87794 0.319212 3.83591 -1.14441e-05C3.92097 0.042018 3.97601 0.0660348 4.02704 0.0960558C4.78457 0.535363 5.46004 1.08675 6.13652 1.63814C6.57683 1.99739 7.01914 2.35464 7.47946 2.68687C8.63026 3.51645 9.92417 4.03181 11.2921 4.37605C12.4189 4.66025 13.5627 4.83838 14.7175 4.95846C17.3654 5.23365 20.0212 5.27168 22.6801 5.20964C23.912 5.18062 25.1448 5.14459 26.3757 5.08855C27.6466 5.03051 28.9165 4.94845 30.1864 4.8684C31.1851 4.80535 32.1818 4.7293 33.1805 4.66025C34.2422 4.5872 35.3039 4.50214 36.3667 4.4471C37.8938 4.36805 39.4228 4.34303 40.9519 4.40207C41.7034 4.43109 42.4559 4.46411 43.2055 4.52416C45.8453 4.7353 48.4421 5.1656 50.9329 6.10526C52.4159 6.66565 53.8049 7.39717 55.0237 8.42389C56.4748 9.64574 57.5105 11.1418 58.0118 12.9871C58.26 13.8997 58.3421 14.8264 58.276 15.768C58.273 15.8161 58.268 15.8641 58.26 15.9111C58.255 15.9421 58.243 15.9722 58.226 16.0282C58.196 15.9812 58.1739 15.9542 58.1599 15.9241C57.4114 14.339 56.2856 13.0721 54.8877 12.0344C53.6588 11.1218 52.3058 10.4423 50.8788 9.89992C49.3278 9.31051 47.7286 8.89922 46.0995 8.59601C44.8476 8.36284 43.5877 8.19372 42.3209 8.08465C40.4616 7.92454 38.5982 7.85549 36.7319 7.92253C36.0685 7.94655 35.405 7.99158 34.7425 8.02761C34.6885 8.03061 34.6345 8.04262 34.5684 8.05263V38.5079C34.6625 38.5079 34.7556 38.5119 34.8486 38.5069C35.9434 38.4539 37.0382 38.3879 38.1339 38.3468C39.5669 38.2938 40.9989 38.3228 42.4309 38.3999C43.5267 38.4589 44.6175 38.555 45.7042 38.7061C48.0899 39.0383 50.4175 39.5837 52.6041 40.6284C53.995 41.2929 55.2569 42.1405 56.3066 43.2813C57.5325 44.6132 58.295 46.1693 58.5582 47.9636C58.6443 48.552 58.6493 49.1434 58.6093 49.7358C58.6043 49.8119 58.5832 49.8859 58.5632 50C58.4782 49.8569 58.4151 49.7478 58.3491 49.6407C57.8197 48.7911 57.1512 48.0616 56.4067 47.3982C55.0077 46.1513 53.4126 45.2176 51.7004 44.4731C49.9342 43.7056 48.0959 43.1732 46.2116 42.7909C44.7596 42.4957 43.2935 42.2996 41.8185 42.1725C40.0222 42.0184 38.222 41.9834 36.4197 42.0144C34.7866 42.0424 33.1564 42.1375 31.5313 42.2966C30.2654 42.4207 29.0015 42.5688 27.7336 42.6759C26.4577 42.7829 25.1798 42.876 23.902 42.933C22.6391 42.9891 21.3742 43.0161 20.1093 43.0151C18.5482 43.0141 16.9891 42.923 15.438 42.7359C13.7358 42.5308 12.0577 42.2115 10.4365 41.6381C9.29273 41.2329 8.21097 40.7085 7.23929 39.971C5.76526 38.8502 4.8316 37.3842 4.43533 35.5789C4.33826 35.1346 4.27822 34.6823 4.20416 34.233C4.19015 34.1479 4.19015 34.0618 4.18215 33.9468Z" fill="white"/>
<path d="M47.7846 23.7056C47.6966 23.6806 47.6095 23.6535 47.5205 23.6305C46.7269 23.4254 46.0094 23.0811 45.387 22.5368C43.7018 21.0637 43.5517 18.598 44.8606 16.9048C45.6101 15.9351 46.6098 15.3477 47.7967 15.0876C48.2079 14.9975 48.6342 14.9465 49.0555 14.9324C50.6146 14.8804 52.1567 15.0215 53.6688 15.4188C54.8176 15.72 55.8863 16.1953 56.814 16.9489C58.0889 17.9856 58.8604 19.3215 59.1446 20.9386C59.2767 21.6882 59.3367 22.4437 59.3367 23.2062C59.3347 26.1263 59.3387 29.0473 59.3447 31.9674C59.3457 32.7119 59.3958 33.4534 59.5739 34.1809C59.664 34.5482 59.8051 34.8934 60.0152 35.2116C60.3104 35.659 60.7327 35.8801 61.2591 35.9201C61.3301 35.9251 61.4012 35.9281 61.4872 35.9331V36.2464C61.4802 36.2524 61.4692 36.2704 61.4572 36.2704C60.2774 36.2744 59.1056 36.2063 57.9768 35.8221C57.1512 35.5409 56.4587 35.0745 55.9994 34.31C55.6562 33.7376 55.479 33.1092 55.396 32.4537C55.3449 32.0514 55.3199 31.6461 55.2789 31.1968C55.2289 31.3119 55.1918 31.394 55.1578 31.478C54.7665 32.4527 54.2322 33.3363 53.4997 34.0959C52.4789 35.1536 51.2361 35.8131 49.8031 36.0943C48.0608 36.4355 46.3176 36.4075 44.5924 35.9662C43.3095 35.6389 42.2158 34.9945 41.3792 33.9508C40.7377 33.1502 40.3705 32.2326 40.2204 31.2248C40.1083 30.4683 40.0973 29.7108 40.2384 28.9563C40.4455 27.8525 41.0139 26.9539 41.8235 26.1973C42.541 25.5269 43.3836 25.0555 44.2912 24.7013C45.419 24.262 46.5918 23.9818 47.7786 23.7536C47.7816 23.7386 47.7836 23.7226 47.7846 23.7056ZM55.2989 23.6766C54.6825 23.6766 54.0921 23.6786 53.5006 23.6766C52.3939 23.6726 51.2951 23.7636 50.2073 23.9678C49.2947 24.1399 48.4001 24.3781 47.5565 24.7783C46.1535 25.4438 45.1278 26.4715 44.5644 27.9335C44.3202 28.566 44.2161 29.2275 44.1801 29.9019C44.1271 30.9076 44.2071 31.8993 44.5404 32.858C45.0467 34.316 46.0464 35.1986 47.5855 35.4388C48.7343 35.6189 49.8661 35.5269 50.9789 35.1996C52.3108 34.8084 53.3345 34.0118 54.062 32.832C54.4423 32.2155 54.7195 31.5551 54.9156 30.8586C55.1768 29.9289 55.2879 28.9773 55.2969 28.0146C55.3099 26.6146 55.3029 25.2156 55.3039 23.8157C55.3039 23.7766 55.3019 23.7376 55.2989 23.6766ZM55.3019 23.2883C55.3019 23.2042 55.3029 23.1492 55.3019 23.0942C55.2869 22.3096 55.2179 21.5301 55.0978 20.7545C54.9717 19.9389 54.7836 19.1394 54.4313 18.3879C53.7138 16.8578 52.57 15.8351 50.9028 15.4428C50.3554 15.3137 49.7991 15.2617 49.2377 15.2677C48.3641 15.2777 47.5155 15.4248 46.7269 15.8071C45.3219 16.4895 44.4663 17.5913 44.3152 19.1674C44.1631 20.7485 45.0848 22.2856 46.5388 22.9511C47.0281 23.1752 47.5385 23.3353 48.0668 23.4264C48.5482 23.5094 49.0315 23.5625 49.5229 23.5165C50.2154 23.4514 50.9078 23.3734 51.6023 23.3483C52.7451 23.3073 53.8899 23.3053 55.0337 23.2873C55.1128 23.2873 55.1918 23.2873 55.3019 23.2873V23.2883Z" fill="white"/>
<path d="M11.079 11.5421C11.0129 11.5381 10.9819 11.5331 10.9509 11.5341C9.86312 11.5491 8.77336 11.5391 7.6866 11.5861C6.59483 11.6331 5.52809 11.8363 4.52438 12.2976C3.58373 12.7299 2.80818 13.3744 2.13972 14.1559C1.57732 14.8134 1.07997 15.5189 0.608644 16.2444C0.569617 16.3044 0.529589 16.3624 0.482556 16.4335C0.413507 16.4085 0.348462 16.3855 0.259399 16.3544C0.569617 14.6542 0.878833 12.9591 1.19005 11.2529H24.5414C24.8556 12.9521 25.1678 14.6472 25.4841 16.3564C25.406 16.3845 25.342 16.4075 25.2669 16.4345C25.1198 16.2183 24.9787 16.0062 24.8336 15.797C24.3733 15.1326 23.8959 14.4811 23.3536 13.8797C22.2658 12.6729 20.9018 11.9844 19.3087 11.7232C18.4932 11.5901 17.6716 11.5391 16.846 11.5351C16.1655 11.5321 15.4851 11.5341 14.8046 11.5341H14.5824V22.6038C14.5824 25.4838 14.5814 28.3648 14.5834 31.2449C14.5834 31.7332 14.6064 32.2215 14.7145 32.6999C14.7676 32.932 14.8396 33.1622 14.9257 33.3854C15.0668 33.7516 15.339 33.9928 15.7122 34.1029C15.9404 34.1699 16.1795 34.2019 16.4147 34.242C16.5148 34.259 16.6189 34.255 16.7329 34.262V34.5392C14.1361 34.4001 11.5413 34.284 8.92847 34.5522C8.92146 34.4441 8.91746 34.368 8.91146 34.264C9.01853 34.257 9.1126 34.26 9.20266 34.244C9.45384 34.1999 9.71002 34.1719 9.95118 34.0949C10.3445 33.9698 10.6166 33.6996 10.7838 33.3183C10.9729 32.885 11.0239 32.4247 11.054 31.9614C11.075 31.6341 11.076 31.3059 11.077 30.9777C11.078 24.5932 11.078 18.2077 11.078 11.8233C11.078 11.7352 11.078 11.6481 11.078 11.5421H11.079Z" fill="white"/>
<path d="M55.2989 23.6766C55.3019 23.7376 55.3049 23.7766 55.3049 23.8157C55.3039 25.2156 55.3119 26.6156 55.2979 28.0146C55.2889 28.9763 55.1768 29.9289 54.9167 30.8586C54.7215 31.5541 54.4443 32.2155 54.0631 32.832C53.3346 34.0118 52.3118 34.8074 50.9799 35.1996C49.8671 35.5269 48.7353 35.6189 47.5865 35.4388C46.0475 35.1976 45.0478 34.316 44.5414 32.858C44.2082 31.8993 44.1291 30.9076 44.1811 29.9019C44.2162 29.2284 44.3212 28.566 44.5654 27.9335C45.1288 26.4725 46.1545 25.4438 47.5575 24.7783C48.4001 24.3791 49.2947 24.1399 50.2084 23.9678C51.2961 23.7636 52.3949 23.6726 53.5017 23.6766C54.0921 23.6766 54.6835 23.6766 55.2989 23.6766Z" fill="#1E1E1E"/>
<path d="M55.3019 23.2883C55.1908 23.2883 55.1118 23.2873 55.0337 23.2883C53.8899 23.3063 52.7461 23.3093 51.6023 23.3493C50.9078 23.3744 50.2154 23.4524 49.5229 23.5175C49.0315 23.5635 48.5482 23.5104 48.0669 23.4274C47.5375 23.3363 47.0271 23.1752 46.5388 22.9521C45.0838 22.2866 44.1631 20.7495 44.3152 19.1684C44.4663 17.5923 45.3219 16.4905 46.7269 15.8081C47.5155 15.4248 48.3641 15.2777 49.2377 15.2687C49.8001 15.2627 50.3565 15.3147 50.9028 15.4438C52.57 15.8361 53.7138 16.8588 54.4313 18.3889C54.7836 19.1404 54.9717 19.9409 55.0978 20.7555C55.2179 21.5301 55.2869 22.3106 55.3019 23.0952C55.3029 23.1492 55.3019 23.2042 55.3019 23.2883Z" fill="#1E1E1E"/>
</svg>
